<mxfile host="app.diagrams.net" modified="2024-05-08T23:42:25.088Z" agent="Mozilla/5.0 (Windows NT 10.0; Win64; x64) AppleWebKit/537.36 (KHTML, like Gecko) Chrome/122.0.0.0 YaBrowser/24.4.0.0 Safari/537.36" etag="NP3_pYluD0FXoPpwIRXS" version="24.0.1" type="github">
  <diagram name="Страница — 1" id="pYsW1fPe0Tu2wBpFtFvx">
    <mxGraphModel dx="2191" dy="866" grid="1" gridSize="10" guides="1" tooltips="1" connect="1" arrows="1" fold="1" page="1" pageScale="1" pageWidth="1169" pageHeight="827" math="0" shadow="0">
      <root>
        <mxCell id="0" />
        <mxCell id="1" parent="0" />
        <mxCell id="aPsusKTx-mUWodK5LegC-20" style="edgeStyle=orthogonalEdgeStyle;rounded=0;orthogonalLoop=1;jettySize=auto;html=1;fillColor=#FFA1A1;strokeColor=#FFA1A1;" edge="1" parent="1" source="aPsusKTx-mUWodK5LegC-1" target="aPsusKTx-mUWodK5LegC-12">
          <mxGeometry relative="1" as="geometry" />
        </mxCell>
        <mxCell id="aPsusKTx-mUWodK5LegC-21" style="edgeStyle=orthogonalEdgeStyle;rounded=0;orthogonalLoop=1;jettySize=auto;html=1;entryX=0;entryY=0.5;entryDx=0;entryDy=0;fillColor=#FFA1A1;strokeColor=#FFA1A1;" edge="1" parent="1" source="aPsusKTx-mUWodK5LegC-1" target="aPsusKTx-mUWodK5LegC-14">
          <mxGeometry relative="1" as="geometry" />
        </mxCell>
        <mxCell id="aPsusKTx-mUWodK5LegC-22" style="edgeStyle=orthogonalEdgeStyle;rounded=0;orthogonalLoop=1;jettySize=auto;html=1;fillColor=#FFA1A1;strokeColor=#FFA1A1;" edge="1" parent="1" source="aPsusKTx-mUWodK5LegC-1" target="aPsusKTx-mUWodK5LegC-16">
          <mxGeometry relative="1" as="geometry" />
        </mxCell>
        <mxCell id="aPsusKTx-mUWodK5LegC-23" style="edgeStyle=orthogonalEdgeStyle;rounded=0;orthogonalLoop=1;jettySize=auto;html=1;fillColor=#FFA1A1;strokeColor=#FFA1A1;" edge="1" parent="1" source="aPsusKTx-mUWodK5LegC-1" target="aPsusKTx-mUWodK5LegC-18">
          <mxGeometry relative="1" as="geometry" />
        </mxCell>
        <mxCell id="aPsusKTx-mUWodK5LegC-25" style="edgeStyle=orthogonalEdgeStyle;rounded=0;orthogonalLoop=1;jettySize=auto;html=1;fillColor=#FFA1A1;strokeColor=#FFA1A1;" edge="1" parent="1" source="aPsusKTx-mUWodK5LegC-1" target="aPsusKTx-mUWodK5LegC-24">
          <mxGeometry relative="1" as="geometry" />
        </mxCell>
        <mxCell id="aPsusKTx-mUWodK5LegC-27" style="edgeStyle=orthogonalEdgeStyle;rounded=0;orthogonalLoop=1;jettySize=auto;html=1;entryX=0;entryY=0.5;entryDx=0;entryDy=0;fillColor=#FFA1A1;strokeColor=#FFA1A1;" edge="1" parent="1" source="aPsusKTx-mUWodK5LegC-1" target="aPsusKTx-mUWodK5LegC-26">
          <mxGeometry relative="1" as="geometry" />
        </mxCell>
        <mxCell id="aPsusKTx-mUWodK5LegC-40" value="6 м\э реле" style="edgeLabel;html=1;align=center;verticalAlign=middle;resizable=0;points=[];" vertex="1" connectable="0" parent="aPsusKTx-mUWodK5LegC-27">
          <mxGeometry x="-0.8565" y="3" relative="1" as="geometry">
            <mxPoint x="15" y="3" as="offset" />
          </mxGeometry>
        </mxCell>
        <mxCell id="aPsusKTx-mUWodK5LegC-1" value="ОВЕН ПЛК100" style="rounded=0;whiteSpace=wrap;html=1;" vertex="1" parent="1">
          <mxGeometry x="240" y="360" width="200" height="360" as="geometry" />
        </mxCell>
        <mxCell id="aPsusKTx-mUWodK5LegC-30" style="edgeStyle=orthogonalEdgeStyle;rounded=0;orthogonalLoop=1;jettySize=auto;html=1;entryX=0.5;entryY=0;entryDx=0;entryDy=0;exitX=1;exitY=0.5;exitDx=0;exitDy=0;fillColor=#3399FF;strokeColor=#3399FF;" edge="1" parent="1" source="aPsusKTx-mUWodK5LegC-32" target="aPsusKTx-mUWodK5LegC-12">
          <mxGeometry relative="1" as="geometry">
            <mxPoint x="-89.99999999999977" y="420" as="sourcePoint" />
            <Array as="points">
              <mxPoint x="-90" y="420" />
              <mxPoint x="-60" y="420" />
              <mxPoint x="-60" y="280" />
              <mxPoint x="625" y="280" />
            </Array>
          </mxGeometry>
        </mxCell>
        <mxCell id="aPsusKTx-mUWodK5LegC-31" style="edgeStyle=orthogonalEdgeStyle;rounded=0;orthogonalLoop=1;jettySize=auto;html=1;entryX=0;entryY=0.25;entryDx=0;entryDy=0;exitX=1;exitY=0.75;exitDx=0;exitDy=0;strokeColor=#FFA1A1;" edge="1" parent="1" source="aPsusKTx-mUWodK5LegC-32" target="aPsusKTx-mUWodK5LegC-1">
          <mxGeometry relative="1" as="geometry">
            <mxPoint x="-89.99999999999977" y="460" as="sourcePoint" />
            <Array as="points">
              <mxPoint x="-90" y="450" />
            </Array>
          </mxGeometry>
        </mxCell>
        <mxCell id="aPsusKTx-mUWodK5LegC-8" style="edgeStyle=orthogonalEdgeStyle;rounded=0;orthogonalLoop=1;jettySize=auto;html=1;exitX=1;exitY=0.5;exitDx=0;exitDy=0;entryX=0;entryY=0.5;entryDx=0;entryDy=0;" edge="1" parent="1" source="aPsusKTx-mUWodK5LegC-4" target="aPsusKTx-mUWodK5LegC-1">
          <mxGeometry relative="1" as="geometry" />
        </mxCell>
        <mxCell id="aPsusKTx-mUWodK5LegC-9" value="RS232" style="edgeLabel;html=1;align=center;verticalAlign=middle;resizable=0;points=[];" vertex="1" connectable="0" parent="aPsusKTx-mUWodK5LegC-8">
          <mxGeometry x="-0.0917" y="-1" relative="1" as="geometry">
            <mxPoint as="offset" />
          </mxGeometry>
        </mxCell>
        <mxCell id="aPsusKTx-mUWodK5LegC-4" value="&lt;font style=&quot;font-size: 14px;&quot;&gt;Весы&amp;nbsp;&lt;span style=&quot;line-height: 107%; font-family: &amp;quot;Times New Roman&amp;quot;, serif;&quot;&gt;Гулливер 15&lt;/span&gt;&lt;/font&gt;" style="rounded=0;whiteSpace=wrap;html=1;" vertex="1" parent="1">
          <mxGeometry x="20" y="510" width="120" height="60" as="geometry" />
        </mxCell>
        <mxCell id="aPsusKTx-mUWodK5LegC-12" value="Лампа&lt;br&gt;Класса_1" style="ellipse;whiteSpace=wrap;html=1;aspect=fixed;" vertex="1" parent="1">
          <mxGeometry x="590" y="300" width="70" height="70" as="geometry" />
        </mxCell>
        <mxCell id="aPsusKTx-mUWodK5LegC-14" value="Лампа&lt;br&gt;Класса_2" style="ellipse;whiteSpace=wrap;html=1;aspect=fixed;" vertex="1" parent="1">
          <mxGeometry x="590" y="380" width="70" height="70" as="geometry" />
        </mxCell>
        <mxCell id="aPsusKTx-mUWodK5LegC-16" value="Лампа&lt;br&gt;Класса_3" style="ellipse;whiteSpace=wrap;html=1;aspect=fixed;" vertex="1" parent="1">
          <mxGeometry x="590" y="460" width="70" height="70" as="geometry" />
        </mxCell>
        <mxCell id="aPsusKTx-mUWodK5LegC-18" value="Лампа&lt;br&gt;Класса_4" style="ellipse;whiteSpace=wrap;html=1;aspect=fixed;" vertex="1" parent="1">
          <mxGeometry x="590" y="540" width="70" height="70" as="geometry" />
        </mxCell>
        <mxCell id="aPsusKTx-mUWodK5LegC-24" value="Лампа&lt;br&gt;Класса_5" style="ellipse;whiteSpace=wrap;html=1;aspect=fixed;" vertex="1" parent="1">
          <mxGeometry x="590" y="620" width="70" height="70" as="geometry" />
        </mxCell>
        <mxCell id="aPsusKTx-mUWodK5LegC-26" value="Лампа&lt;br&gt;Класса_6" style="ellipse;whiteSpace=wrap;html=1;aspect=fixed;" vertex="1" parent="1">
          <mxGeometry x="590" y="700" width="70" height="70" as="geometry" />
        </mxCell>
        <mxCell id="aPsusKTx-mUWodK5LegC-35" style="edgeStyle=orthogonalEdgeStyle;rounded=0;orthogonalLoop=1;jettySize=auto;html=1;entryX=0;entryY=0.5;entryDx=0;entryDy=0;strokeColor=#FFA1A1;" edge="1" parent="1" source="aPsusKTx-mUWodK5LegC-32" target="aPsusKTx-mUWodK5LegC-4">
          <mxGeometry relative="1" as="geometry">
            <Array as="points">
              <mxPoint x="-35" y="450" />
              <mxPoint x="-35" y="540" />
            </Array>
          </mxGeometry>
        </mxCell>
        <mxCell id="aPsusKTx-mUWodK5LegC-38" style="edgeStyle=orthogonalEdgeStyle;rounded=0;orthogonalLoop=1;jettySize=auto;html=1;entryX=1;entryY=0.5;entryDx=0;entryDy=0;strokeColor=#3399FF;" edge="1" parent="1" source="aPsusKTx-mUWodK5LegC-32" target="aPsusKTx-mUWodK5LegC-14">
          <mxGeometry relative="1" as="geometry">
            <Array as="points">
              <mxPoint x="-60" y="420" />
              <mxPoint x="-60" y="280" />
              <mxPoint x="680" y="280" />
              <mxPoint x="680" y="415" />
            </Array>
          </mxGeometry>
        </mxCell>
        <mxCell id="aPsusKTx-mUWodK5LegC-41" style="edgeStyle=orthogonalEdgeStyle;rounded=0;orthogonalLoop=1;jettySize=auto;html=1;entryX=1;entryY=0.5;entryDx=0;entryDy=0;strokeColor=#3399FF;" edge="1" parent="1" source="aPsusKTx-mUWodK5LegC-32" target="aPsusKTx-mUWodK5LegC-18">
          <mxGeometry relative="1" as="geometry">
            <Array as="points">
              <mxPoint x="-60" y="420" />
              <mxPoint x="-60" y="280" />
              <mxPoint x="680" y="280" />
              <mxPoint x="680" y="575" />
            </Array>
          </mxGeometry>
        </mxCell>
        <mxCell id="aPsusKTx-mUWodK5LegC-42" style="edgeStyle=orthogonalEdgeStyle;rounded=0;orthogonalLoop=1;jettySize=auto;html=1;entryX=1;entryY=0.5;entryDx=0;entryDy=0;strokeColor=#3399FF;" edge="1" parent="1" source="aPsusKTx-mUWodK5LegC-32" target="aPsusKTx-mUWodK5LegC-24">
          <mxGeometry relative="1" as="geometry">
            <Array as="points">
              <mxPoint x="-60" y="420" />
              <mxPoint x="-60" y="280" />
              <mxPoint x="680" y="280" />
              <mxPoint x="680" y="655" />
            </Array>
          </mxGeometry>
        </mxCell>
        <mxCell id="aPsusKTx-mUWodK5LegC-43" style="edgeStyle=orthogonalEdgeStyle;rounded=0;orthogonalLoop=1;jettySize=auto;html=1;entryX=1;entryY=0.5;entryDx=0;entryDy=0;fillColor=#3399FF;" edge="1" parent="1" source="aPsusKTx-mUWodK5LegC-32" target="aPsusKTx-mUWodK5LegC-26">
          <mxGeometry relative="1" as="geometry">
            <Array as="points">
              <mxPoint x="-60" y="420" />
              <mxPoint x="-60" y="280" />
              <mxPoint x="680" y="280" />
              <mxPoint x="680" y="735" />
            </Array>
          </mxGeometry>
        </mxCell>
        <mxCell id="aPsusKTx-mUWodK5LegC-32" value="230В/50гц" style="rounded=1;whiteSpace=wrap;html=1;" vertex="1" parent="1">
          <mxGeometry x="-210" y="410" width="120" height="60" as="geometry" />
        </mxCell>
        <mxCell id="aPsusKTx-mUWodK5LegC-39" style="edgeStyle=orthogonalEdgeStyle;rounded=0;orthogonalLoop=1;jettySize=auto;html=1;entryX=1.047;entryY=0.492;entryDx=0;entryDy=0;entryPerimeter=0;strokeColor=#3399FF;" edge="1" parent="1" source="aPsusKTx-mUWodK5LegC-32" target="aPsusKTx-mUWodK5LegC-16">
          <mxGeometry relative="1" as="geometry">
            <Array as="points">
              <mxPoint x="-60" y="420" />
              <mxPoint x="-60" y="280" />
              <mxPoint x="680" y="280" />
              <mxPoint x="680" y="494" />
            </Array>
          </mxGeometry>
        </mxCell>
      </root>
    </mxGraphModel>
  </diagram>
</mxfile>
